<?xml version="1.0" encoding="UTF-8"?>
<!DOCTYPE svg PUBLIC "-//W3C//DTD SVG 1.1//EN" "http://www.w3.org/Graphics/SVG/1.1/DTD/svg11.dtd">
<svg xmlns="http://www.w3.org/2000/svg" version="1.1" width="44px" height="190px" style="shape-rendering:geometricPrecision; text-rendering:geometricPrecision; image-rendering:optimizeQuality; fill-rule:evenodd; clip-rule:evenodd" xmlns:xlink="http://www.w3.org/1999/xlink">
<g><path style="opacity:0.971" fill="#9bd7d7" d="M 43.5,15.5 C 43.5,20.1667 43.5,24.8333 43.5,29.5C 35.6998,44.7205 24.0331,48.5539 8.5,41C 4.49052,37.8393 1.49052,34.006 -0.5,29.5C -0.5,24.8333 -0.5,20.1667 -0.5,15.5C 7.30024,0.279469 18.9669,-3.55386 34.5,4C 38.5095,7.16065 41.5095,10.994 43.5,15.5 Z"/></g>
<g><path style="opacity:0.969" fill="#9bd7d7" d="M -0.5,54.5 C 14.1667,54.5 28.8333,54.5 43.5,54.5C 43.5,56.8333 43.5,59.1667 43.5,61.5C 42.2075,64.7368 40.3742,67.7368 38,70.5C 34.9177,72.625 31.7511,74.625 28.5,76.5C 35.216,79.8826 40.216,84.8826 43.5,91.5C 43.5,93.8333 43.5,96.1667 43.5,98.5C 38.4889,98.3341 33.4889,98.5007 28.5,99C 35.3532,102.021 40.3532,106.855 43.5,113.5C 43.5,118.167 43.5,122.833 43.5,127.5C 35.0863,143.025 23.0863,146.525 7.5,138C 3.68926,134.85 1.0226,131.017 -0.5,126.5C -0.5,122.167 -0.5,117.833 -0.5,113.5C 1.35033,110.313 3.35033,107.147 5.5,104C 8.04815,101.558 11.0482,99.8917 14.5,99C 9.51108,98.5007 4.51108,98.3341 -0.5,98.5C -0.5,96.1667 -0.5,93.8333 -0.5,91.5C 2.67323,84.1609 8.00656,78.9942 15.5,76C 8.07043,73.4004 2.73709,68.5671 -0.5,61.5C -0.5,59.1667 -0.5,56.8333 -0.5,54.5 Z"/></g>
<g><path style="opacity:0.93" fill="#9bd7d7" d="M -0.5,166.5 C 14.1667,166.5 28.8333,166.5 43.5,166.5C 43.5,169.167 43.5,171.833 43.5,174.5C 40.0827,181.585 34.7493,186.585 27.5,189.5C 23.8333,189.5 20.1667,189.5 16.5,189.5C 8.26741,186.935 2.60074,181.602 -0.5,173.5C -0.5,171.167 -0.5,168.833 -0.5,166.5 Z"/></g>
</svg>
