<?xml version="1.0" encoding="UTF-8"?>
<!DOCTYPE svg PUBLIC "-//W3C//DTD SVG 1.1//EN" "http://www.w3.org/Graphics/SVG/1.1/DTD/svg11.dtd">
<svg xmlns="http://www.w3.org/2000/svg" version="1.1" width="58px" height="255px" style="shape-rendering:geometricPrecision; text-rendering:geometricPrecision; image-rendering:optimizeQuality; fill-rule:evenodd; clip-rule:evenodd" xmlns:xlink="http://www.w3.org/1999/xlink">
<g><path style="opacity:0.979" fill="#29325b" d="M 23.5,-0.5 C 26.5,-0.5 29.5,-0.5 32.5,-0.5C 44.7042,2.43533 53.0376,9.76866 57.5,21.5C 57.5,26.5 57.5,31.5 57.5,36.5C 49.8821,55.3065 36.2154,61.8065 16.5,56C 7.91616,51.9715 2.2495,45.4715 -0.5,36.5C -0.5,31.5 -0.5,26.5 -0.5,21.5C 3.37292,9.62568 11.3729,2.29235 23.5,-0.5 Z"/></g>
<g><path style="opacity:0.986" fill="#f2a611" d="M -0.5,73.5 C 18.8333,73.5 38.1667,73.5 57.5,73.5C 57.5,76.1667 57.5,78.8333 57.5,81.5C 53.8657,93.4665 45.8657,100.466 33.5,102.5C 30.1667,102.5 26.8333,102.5 23.5,102.5C 11.7792,99.7807 3.77919,92.7807 -0.5,81.5C -0.5,78.8333 -0.5,76.1667 -0.5,73.5 Z"/></g>
<g><path style="opacity:0.963" fill="#a8c585" d="M 23.5,102.5 C 26.8333,102.5 30.1667,102.5 33.5,102.5C 45.6271,105.292 53.6271,112.626 57.5,124.5C 57.5,127.167 57.5,129.833 57.5,132.5C 50.8333,132.5 44.1667,132.5 37.5,132.5C 31.5,132.5 25.5,132.5 19.5,132.5C 12.8333,132.5 6.16667,132.5 -0.5,132.5C -0.5,129.833 -0.5,127.167 -0.5,124.5C 3.37292,112.626 11.3729,105.292 23.5,102.5 Z"/></g>
<g><path style="opacity:0.985" fill="#e3562e" d="M 19.5,132.5 C 25.5,132.5 31.5,132.5 37.5,132.5C 47.5666,136.234 54.2333,143.234 57.5,153.5C 57.5,158.5 57.5,163.5 57.5,168.5C 50.8111,186.016 38.1445,192.85 19.5,189C 9.34742,185.498 2.68075,178.665 -0.5,168.5C -0.5,163.5 -0.5,158.5 -0.5,153.5C 2.74016,143.259 9.40683,136.259 19.5,132.5 Z"/></g>
<g><path style="opacity:0.989" fill="#659bbc" d="M 57.5,224.5 C 57.5,227.167 57.5,229.833 57.5,232.5C 53.6271,244.374 45.6271,251.708 33.5,254.5C 30.5,254.5 27.5,254.5 24.5,254.5C 12.014,251.347 3.68069,243.681 -0.5,231.5C -0.5,229.167 -0.5,226.833 -0.5,224.5C 18.8257,223.552 38.159,223.552 57.5,224.5 Z"/></g>
</svg>
