<?xml version="1.0" encoding="UTF-8"?>
<!DOCTYPE svg PUBLIC "-//W3C//DTD SVG 1.1//EN" "http://www.w3.org/Graphics/SVG/1.1/DTD/svg11.dtd">
<svg xmlns="http://www.w3.org/2000/svg" version="1.1" width="192px" height="213px" style="shape-rendering:geometricPrecision; text-rendering:geometricPrecision; image-rendering:optimizeQuality; fill-rule:evenodd; clip-rule:evenodd" xmlns:xlink="http://www.w3.org/1999/xlink">
<g><path style="opacity:0.987" fill="#9fd9dc" d="M 94.5,-0.5 C 105.5,-0.5 116.5,-0.5 127.5,-0.5C 127.326,1.86105 126.993,4.19438 126.5,6.5C 124.391,10.5714 121.058,13.2381 116.5,14.5C 113.167,14.5 109.833,14.5 106.5,14.5C 98.8301,12.4915 94.8301,7.49145 94.5,-0.5 Z"/></g>
<g><path style="opacity:1" fill="#2b355e" d="M 152.5,-0.5 C 157.167,-0.5 161.833,-0.5 166.5,-0.5C 170.269,1.93744 172.936,5.27077 174.5,9.5C 175.414,12.728 175.747,16.0613 175.5,19.5C 174.289,23.7155 171.622,26.7155 167.5,28.5C 164.609,29.4025 161.609,29.7359 158.5,29.5C 156.167,29.5 153.833,29.5 151.5,29.5C 148.149,27.1463 145.482,24.1463 143.5,20.5C 143.5,16.5 143.5,12.5 143.5,8.5C 145.528,4.4722 148.528,1.4722 152.5,-0.5 Z"/></g>
<g><path style="opacity:1" fill="#a9c788" d="M 14.5,-0.5 C 16.8333,-0.5 19.1667,-0.5 21.5,-0.5C 24.629,1.82132 27.4623,4.48799 30,7.5C 34.2478,21.6966 29.0812,29.3633 14.5,30.5C 14.5,20.1667 14.5,9.83333 14.5,-0.5 Z"/></g>
<g><path style="opacity:1" fill="#e45930" d="M 72.5,-0.5 C 76.5,-0.5 80.5,-0.5 84.5,-0.5C 97.9082,8.00984 98.9082,17.8432 87.5,29C 71.9558,33.8333 63.4558,28.3333 62,12.5C 63.5335,6.47697 67.0335,2.14364 72.5,-0.5 Z"/></g>
<g><path style="opacity:1" fill="#a9c788" d="M 127.5,-0.5 C 129.833,-0.5 132.167,-0.5 134.5,-0.5C 137.833,2.16667 140.833,5.16667 143.5,8.5C 143.5,12.5 143.5,16.5 143.5,20.5C 141.547,24.1203 138.881,27.1203 135.5,29.5C 133.833,29.5 132.167,29.5 130.5,29.5C 129.5,29.5 128.5,29.5 127.5,29.5C 127.483,27.4352 127.15,25.4352 126.5,23.5C 126.5,17.8333 126.5,12.1667 126.5,6.5C 126.993,4.19438 127.326,1.86105 127.5,-0.5 Z"/></g>
<g><path style="opacity:1" fill="#689cbc" d="M 184.5,-0.5 C 186.833,-0.5 189.167,-0.5 191.5,-0.5C 191.5,9.5 191.5,19.5 191.5,29.5C 188.833,29.5 186.167,29.5 183.5,29.5C 179.731,27.0626 177.064,23.7292 175.5,19.5C 175.747,16.0613 175.414,12.728 174.5,9.5C 176.833,5.16667 180.167,1.83333 184.5,-0.5 Z"/></g>
<g><path style="opacity:1" fill="#f2a91d" d="M 106.5,14.5 C 109.833,14.5 113.167,14.5 116.5,14.5C 121.089,16.1243 124.423,19.1243 126.5,23.5C 127.15,25.4352 127.483,27.4352 127.5,29.5C 128.5,29.5 129.5,29.5 130.5,29.5C 129.791,30.404 128.791,30.7373 127.5,30.5C 124.833,30.5 122.167,30.5 119.5,30.5C 113.833,30.5 108.167,30.5 102.5,30.5C 99.6146,30.8064 96.9479,30.4731 94.5,29.5C 95.4173,21.983 99.4173,16.983 106.5,14.5 Z"/></g>
<g><path style="opacity:0.996" fill="#a1d9dc" d="M 119.5,30.5 C 122.167,30.5 124.833,30.5 127.5,30.5C 127.5,32.8333 127.5,35.1667 127.5,37.5C 127.5,38.1667 127.833,38.5 128.5,38.5C 128.334,42.8461 128.501,47.1794 129,51.5C 131.177,48.4769 134.011,46.4769 137.5,45.5C 141.5,45.5 145.5,45.5 149.5,45.5C 153.861,47.861 157.194,51.1943 159.5,55.5C 158.659,57.3792 158.325,59.3792 158.5,61.5C 156.167,61.5 153.833,61.5 151.5,61.5C 145.833,60.1667 140.167,60.1667 134.5,61.5C 132.167,61.5 129.833,61.5 127.5,61.5C 125.735,60.5386 123.735,60.2053 121.5,60.5C 116.129,58.7911 112.795,55.1244 111.5,49.5C 111.5,46.5 111.5,43.5 111.5,40.5C 113.064,36.2708 115.731,32.9374 119.5,30.5 Z"/></g>
<g><path style="opacity:0.999" fill="#e55b32" d="M 130.5,29.5 C 132.167,29.5 133.833,29.5 135.5,29.5C 140.833,29.5 146.167,29.5 151.5,29.5C 153.833,29.5 156.167,29.5 158.5,29.5C 158.5,31.1667 158.5,32.8333 158.5,34.5C 157.955,36.5932 157.122,38.5932 156,40.5C 153.674,42.0657 151.508,43.7324 149.5,45.5C 145.5,45.5 141.5,45.5 137.5,45.5C 133.954,43.8907 130.954,41.5574 128.5,38.5C 127.833,38.5 127.5,38.1667 127.5,37.5C 127.5,35.1667 127.5,32.8333 127.5,30.5C 128.791,30.7373 129.791,30.404 130.5,29.5 Z"/></g>
<g><path style="opacity:1" fill="#2e3760" d="M 62.5,29.5 C 62.5,31.5 62.5,33.5 62.5,35.5C 60.1667,39.8333 56.8333,43.1667 52.5,45.5C 48.5,45.5 44.5,45.5 40.5,45.5C 33.3875,42.628 29.7209,37.2947 29.5,29.5C 40.5,29.5 51.5,29.5 62.5,29.5 Z"/></g>
<g><path style="opacity:1" fill="#f4a817" d="M 62.5,29.5 C 70.6058,29.2901 75.9391,32.9568 78.5,40.5C 78.5,43.8333 78.5,47.1667 78.5,50.5C 77.2748,54.3884 74.9415,57.3884 71.5,59.5C 68.5176,59.9629 65.5176,60.2962 62.5,60.5C 62.5,58.5 62.5,56.5 62.5,54.5C 62.6716,53.5084 62.3382,52.8417 61.5,52.5C 62.4524,46.9252 62.7857,41.2586 62.5,35.5C 62.5,33.5 62.5,31.5 62.5,29.5 Z"/></g>
<g><path style="opacity:1" fill="#689cbb" d="M 94.5,29.5 C 96.9479,30.4731 99.6146,30.8064 102.5,30.5C 106.417,32.9962 109.417,36.3296 111.5,40.5C 111.5,43.5 111.5,46.5 111.5,49.5C 109.5,54.8333 105.833,58.5 100.5,60.5C 98.5,60.5 96.5,60.5 94.5,60.5C 91.7938,60.4249 89.1272,60.0916 86.5,59.5C 83.1385,57.1051 80.4719,54.1051 78.5,50.5C 78.5,47.1667 78.5,43.8333 78.5,40.5C 81.653,33.6829 86.9863,30.0163 94.5,29.5 Z"/></g>
<g><path style="opacity:1" fill="#aac687" d="M 167.5,28.5 C 172.64,29.4881 177.974,29.8214 183.5,29.5C 186.167,29.5 188.833,29.5 191.5,29.5C 191.5,31.5 191.5,33.5 191.5,35.5C 189.083,40.2517 185.417,43.5851 180.5,45.5C 176.833,45.5 173.167,45.5 169.5,45.5C 167.231,44.0242 164.898,42.5242 162.5,41C 161.267,38.6857 159.933,36.5191 158.5,34.5C 158.5,32.8333 158.5,31.1667 158.5,29.5C 161.609,29.7359 164.609,29.4025 167.5,28.5 Z"/></g>
<g><path style="opacity:0.994" fill="#a0d9dc" d="M 40.5,45.5 C 44.5,45.5 48.5,45.5 52.5,45.5C 56.408,46.7497 59.408,49.083 61.5,52.5C 61.3284,53.4916 61.6618,54.1583 62.5,54.5C 62.5,56.5 62.5,58.5 62.5,60.5C 62.5,60.8333 62.5,61.1667 62.5,61.5C 51.5,61.5 40.5,61.5 29.5,61.5C 30.0507,53.9607 33.7174,48.6274 40.5,45.5 Z"/></g>
<g><path style="opacity:1" fill="#f3a817" d="M 169.5,45.5 C 173.167,45.5 176.833,45.5 180.5,45.5C 185.068,47.4022 188.735,50.4022 191.5,54.5C 191.5,58.5 191.5,62.5 191.5,66.5C 188.815,70.1831 185.482,73.1831 181.5,75.5C 177.167,75.5 172.833,75.5 168.5,75.5C 162.454,72.7848 159.12,68.1181 158.5,61.5C 158.325,59.3792 158.659,57.3792 159.5,55.5C 161.167,50.5 164.5,47.1667 169.5,45.5 Z"/></g>
<g><path style="opacity:1" fill="#2c365e" d="M 94.5,60.5 C 96.5,60.5 98.5,60.5 100.5,60.5C 105.929,62.2623 109.262,65.929 110.5,71.5C 110.5,74.5 110.5,77.5 110.5,80.5C 108.078,87.5777 103.078,91.2444 95.5,91.5C 94.8333,91.5 94.5,91.1667 94.5,90.5C 94.5,88.5 94.5,86.5 94.5,84.5C 94.5,78.8333 94.5,73.1667 94.5,67.5C 94.5,65.1667 94.5,62.8333 94.5,60.5 Z"/></g>
<g><path style="opacity:0.998" fill="#e35a32" d="M 121.5,60.5 C 123.735,60.2053 125.735,60.5386 127.5,61.5C 127.5,63.8333 127.5,66.1667 127.5,68.5C 127.5,73.1667 127.5,77.8333 127.5,82.5C 127.5,85.5 127.5,88.5 127.5,91.5C 119.447,91.4356 113.78,87.769 110.5,80.5C 110.5,77.5 110.5,74.5 110.5,71.5C 112.468,66.1988 116.134,62.5321 121.5,60.5 Z"/></g>
<g><path style="opacity:1" fill="#679cbc" d="M 151.5,61.5 C 163.463,71.9969 162.796,81.6636 149.5,90.5C 145.5,90.5 141.5,90.5 137.5,90.5C 133.274,88.94 129.941,86.2733 127.5,82.5C 127.5,77.8333 127.5,73.1667 127.5,68.5C 129.5,65.8333 131.833,63.5 134.5,61.5C 140.167,60.1667 145.833,60.1667 151.5,61.5 Z"/></g>
<g><path style="opacity:1" fill="#aac788" d="M 71.5,59.5 C 76.5,59.5 81.5,59.5 86.5,59.5C 89.1272,60.0916 91.7938,60.4249 94.5,60.5C 94.5,62.8333 94.5,65.1667 94.5,67.5C 92.0821,71.2451 88.7488,73.9118 84.5,75.5C 80.5,75.5 76.5,75.5 72.5,75.5C 66.4377,72.7726 63.1043,68.106 62.5,61.5C 62.5,61.1667 62.5,60.8333 62.5,60.5C 65.5176,60.2962 68.5176,59.9629 71.5,59.5 Z"/></g>
<g><path style="opacity:0.999" fill="#2d365f" d="M 168.5,75.5 C 172.833,75.5 177.167,75.5 181.5,75.5C 185.808,77.8082 189.142,81.1415 191.5,85.5C 191.5,87.5 191.5,89.5 191.5,91.5C 188.833,91.5 186.167,91.5 183.5,91.5C 178.167,90.1667 172.833,90.1667 167.5,91.5C 164.5,91.5 161.5,91.5 158.5,91.5C 158.807,84.2083 162.141,78.8749 168.5,75.5 Z"/></g>
<g><path style="opacity:1" fill="#679cbc" d="M 72.5,75.5 C 76.5,75.5 80.5,75.5 84.5,75.5C 88.4321,77.7619 91.7655,80.7619 94.5,84.5C 94.5,86.5 94.5,88.5 94.5,90.5C 91.7938,90.5751 89.1272,90.9084 86.5,91.5C 81.1667,91.5 75.8333,91.5 70.5,91.5C 67.5448,90.8413 64.5448,90.5079 61.5,90.5C 62.5692,83.4522 66.2359,78.4522 72.5,75.5 Z"/></g>
<g><path style="opacity:1" fill="#e55b33" d="M 61.5,90.5 C 64.5448,90.5079 67.5448,90.8413 70.5,91.5C 73.8515,93.8537 76.5181,96.8537 78.5,100.5C 78.5,104.167 78.5,107.833 78.5,111.5C 76.5181,115.146 73.8515,118.146 70.5,120.5C 67.6146,120.194 64.9479,120.527 62.5,121.5C 61.5058,111.347 61.1724,101.014 61.5,90.5 Z"/></g>
<g><path style="opacity:1" fill="#f4a817" d="M 94.5,90.5 C 94.5,91.1667 94.8333,91.5 95.5,91.5C 95.5,93.8333 95.5,96.1667 95.5,98.5C 94.2477,103.491 94.2477,108.491 95.5,113.5C 95.5,115.833 95.5,118.167 95.5,120.5C 93.5,120.5 91.5,120.5 89.5,120.5C 88.5,120.5 87.5,120.5 86.5,120.5C 83.1195,118.12 80.4528,115.12 78.5,111.5C 78.5,107.833 78.5,104.167 78.5,100.5C 80.4528,96.8797 83.1195,93.8797 86.5,91.5C 89.1272,90.9084 91.7938,90.5751 94.5,90.5 Z"/></g>
<g><path style="opacity:1" fill="#aac787" d="M 127.5,101.5 C 127.5,103.167 127.5,104.833 127.5,106.5C 126.438,116.558 120.771,121.892 110.5,122.5C 104.196,121.501 99.1958,118.501 95.5,113.5C 94.2477,108.491 94.2477,103.491 95.5,98.5C 103.121,89.6919 112.121,88.1919 122.5,94C 124.452,96.4256 126.119,98.9256 127.5,101.5 Z"/></g>
<g><path style="opacity:1" fill="#f2a819" d="M 137.5,90.5 C 141.5,90.5 145.5,90.5 149.5,90.5C 153.833,92.8333 157.167,96.1667 159.5,100.5C 159.795,102.735 159.461,104.735 158.5,106.5C 155.833,106.5 153.167,106.5 150.5,106.5C 145.167,106.5 139.833,106.5 134.5,106.5C 132.167,106.5 129.833,106.5 127.5,106.5C 127.5,104.833 127.5,103.167 127.5,101.5C 129.24,96.3335 132.573,92.6668 137.5,90.5 Z"/></g>
<g><path style="opacity:0.995" fill="#9fd8db" d="M 183.5,91.5 C 186.5,93.8333 189.167,96.5 191.5,99.5C 191.5,103.833 191.5,108.167 191.5,112.5C 189.167,115.5 186.5,118.167 183.5,120.5C 178.167,121.833 172.833,121.833 167.5,120.5C 162.14,117.451 159.14,112.784 158.5,106.5C 159.461,104.735 159.795,102.735 159.5,100.5C 160.798,96.2058 163.465,93.2058 167.5,91.5C 172.833,90.1667 178.167,90.1667 183.5,91.5 Z"/></g>
<g><path style="opacity:1" fill="#2c355e" d="M 134.5,106.5 C 139.833,106.5 145.167,106.5 150.5,106.5C 155.912,109.585 158.912,114.252 159.5,120.5C 156.946,121.388 154.279,121.721 151.5,121.5C 145.833,121.5 140.167,121.5 134.5,121.5C 131.391,121.736 128.391,121.403 125.5,120.5C 126.934,114.75 129.934,110.084 134.5,106.5 Z"/></g>
<g><path style="opacity:0.993" fill="#a0d9db" d="M 70.5,120.5 C 75.8333,120.5 81.1667,120.5 86.5,120.5C 87.5,120.5 88.5,120.5 89.5,120.5C 90.9187,121.451 92.5853,121.784 94.5,121.5C 94.5,123.833 94.5,126.167 94.5,128.5C 92.1203,131.881 89.1203,134.547 85.5,136.5C 81.5,136.5 77.5,136.5 73.5,136.5C 66.4265,134.082 62.7598,129.082 62.5,121.5C 64.9479,120.527 67.6146,120.194 70.5,120.5 Z"/></g>
<g><path style="opacity:0.999" fill="#abc788" d="M 89.5,120.5 C 91.5,120.5 93.5,120.5 95.5,120.5C 103.354,120.743 108.688,124.409 111.5,131.5C 111.5,134.833 111.5,138.167 111.5,141.5C 109.547,145.12 106.881,148.12 103.5,150.5C 100.57,151.299 97.5701,151.632 94.5,151.5C 94.5,149.167 94.5,146.833 94.5,144.5C 94.5,139.167 94.5,133.833 94.5,128.5C 94.5,126.167 94.5,123.833 94.5,121.5C 92.5853,121.784 90.9187,121.451 89.5,120.5 Z"/></g>
<g><path style="opacity:1" fill="#aac788" d="M 159.5,120.5 C 162.167,120.5 164.833,120.5 167.5,120.5C 172.833,121.833 178.167,121.833 183.5,120.5C 186.167,120.5 188.833,120.5 191.5,120.5C 191.5,122.5 191.5,124.5 191.5,126.5C 189.142,130.858 185.808,134.192 181.5,136.5C 177.5,136.5 173.5,136.5 169.5,136.5C 164.92,134.922 161.587,131.922 159.5,127.5C 159.5,125.167 159.5,122.833 159.5,120.5 Z"/></g>
<g><path style="opacity:1" fill="#e45931" d="M 55.5,150.5 C 55.1667,150.5 54.8333,150.5 54.5,150.5C 53.8333,150.5 53.5,150.833 53.5,151.5C 48.1053,151.733 42.772,151.4 37.5,150.5C 27.3158,141.978 26.9825,132.978 36.5,123.5C 43.5831,119.456 50.5831,119.623 57.5,124C 65.8703,133.586 65.2037,142.42 55.5,150.5 Z"/></g>
<g><path style="opacity:1" fill="#f3a818" d="M 125.5,120.5 C 128.391,121.403 131.391,121.736 134.5,121.5C 137.833,124.167 140.833,127.167 143.5,130.5C 143.5,134.167 143.5,137.833 143.5,141.5C 141.547,145.12 138.881,148.12 135.5,150.5C 132.57,151.299 129.57,151.632 126.5,151.5C 123.763,151.599 121.096,151.265 118.5,150.5C 115.059,148.388 112.725,145.388 111.5,141.5C 111.5,138.167 111.5,134.833 111.5,131.5C 113.799,124.872 118.466,121.205 125.5,120.5 Z"/></g>
<g><path style="opacity:1" fill="#689cbc" d="M 159.5,120.5 C 159.5,122.833 159.5,125.167 159.5,127.5C 159.334,133.176 159.501,138.843 160,144.5C 162.131,140.53 165.298,137.863 169.5,136.5C 173.5,136.5 177.5,136.5 181.5,136.5C 185.482,138.817 188.815,141.817 191.5,145.5C 191.5,147.5 191.5,149.5 191.5,151.5C 188.455,151.508 185.455,151.841 182.5,152.5C 177.5,152.5 172.5,152.5 167.5,152.5C 164.545,151.841 161.545,151.508 158.5,151.5C 155.763,151.599 153.096,151.265 150.5,150.5C 147.059,148.388 144.725,145.388 143.5,141.5C 143.5,137.833 143.5,134.167 143.5,130.5C 145.459,126.874 148.126,123.874 151.5,121.5C 154.279,121.721 156.946,121.388 159.5,120.5 Z"/></g>
<g><path style="opacity:1" fill="#f3a816" d="M 73.5,136.5 C 77.5,136.5 81.5,136.5 85.5,136.5C 89.1463,138.482 92.1463,141.149 94.5,144.5C 94.5,146.833 94.5,149.167 94.5,151.5C 94.5,151.833 94.5,152.167 94.5,152.5C 92.1667,152.5 89.8333,152.5 87.5,152.5C 81.8251,151.232 76.1584,151.232 70.5,152.5C 68.1667,152.5 65.8333,152.5 63.5,152.5C 63.5,151.833 63.1667,151.5 62.5,151.5C 62.7212,143.949 66.3879,138.949 73.5,136.5 Z"/></g>
<g><path style="opacity:0.999" fill="#e65d36" d="M 103.5,150.5 C 108.5,150.5 113.5,150.5 118.5,150.5C 121.096,151.265 123.763,151.599 126.5,151.5C 126.5,153.167 126.5,154.833 126.5,156.5C 123.674,163.595 118.341,167.262 110.5,167.5C 101.23,166.561 95.897,161.561 94.5,152.5C 94.5,152.167 94.5,151.833 94.5,151.5C 97.5701,151.632 100.57,151.299 103.5,150.5 Z"/></g>
<g><path style="opacity:1" fill="#aac788" d="M 135.5,150.5 C 140.5,150.5 145.5,150.5 150.5,150.5C 153.096,151.265 155.763,151.599 158.5,151.5C 158.5,153.833 158.5,156.167 158.5,158.5C 155.427,163.895 150.76,166.895 144.5,167.5C 142.283,166.631 139.95,166.298 137.5,166.5C 132.553,164.552 128.886,161.219 126.5,156.5C 126.5,154.833 126.5,153.167 126.5,151.5C 129.57,151.632 132.57,151.299 135.5,150.5 Z"/></g>
<g><path style="opacity:1" fill="#f4a819" d="M 14.5,151.5 C 29.0812,152.637 34.2478,160.303 30,174.5C 26.5662,180.416 21.3996,183.083 14.5,182.5C 14.5,172.167 14.5,161.833 14.5,151.5 Z"/></g>
<g><path style="opacity:1" fill="#abc78a" d="M 37.5,150.5 C 42.772,151.4 48.1053,151.733 53.5,151.5C 54.1667,151.5 54.5,151.167 54.5,150.5C 54.8333,150.5 55.1667,150.5 55.5,150.5C 57.9029,150.448 60.2362,150.781 62.5,151.5C 63.1667,151.5 63.5,151.833 63.5,152.5C 61.9153,162.083 56.2486,167.083 46.5,167.5C 35.8081,166.808 30.1414,161.141 29.5,150.5C 32.1667,150.5 34.8333,150.5 37.5,150.5 Z"/></g>
<g><path style="opacity:1" fill="#689cbc" d="M 87.5,152.5 C 99.4255,161.977 99.4255,171.477 87.5,181C 76.3177,185.147 68.1511,181.98 63,171.5C 61.6447,163.557 64.1447,157.224 70.5,152.5C 76.1584,151.232 81.8251,151.232 87.5,152.5 Z"/></g>
<g><path style="opacity:0.998" fill="#e55b32" d="M 158.5,151.5 C 161.545,151.508 164.545,151.841 167.5,152.5C 171.304,154.966 173.971,158.299 175.5,162.5C 175.5,165.5 175.5,168.5 175.5,171.5C 174.625,173.568 173.459,175.568 172,177.5C 169.985,178.697 168.151,180.03 166.5,181.5C 163.833,181.5 161.167,181.5 158.5,181.5C 158.5,173.833 158.5,166.167 158.5,158.5C 158.5,156.167 158.5,153.833 158.5,151.5 Z"/></g>
<g><path style="opacity:1" fill="#f3a816" d="M 191.5,151.5 C 191.5,161.5 191.5,171.5 191.5,181.5C 188.833,181.5 186.167,181.5 183.5,181.5C 179.731,179.063 177.064,175.729 175.5,171.5C 175.5,168.5 175.5,165.5 175.5,162.5C 176.356,158.117 178.69,154.784 182.5,152.5C 185.455,151.841 188.455,151.508 191.5,151.5 Z"/></g>
<g><path style="opacity:1" fill="#e76031" d="M 137.5,166.5 C 139.95,166.298 142.283,166.631 144.5,167.5C 144.666,177.172 144.5,186.839 144,196.5C 132.88,197.89 127.047,192.89 126.5,181.5C 127.022,174.099 130.688,169.099 137.5,166.5 Z"/></g>
<g><path style="opacity:1" fill="#a9c788" d="M -0.5,181.5 C 11.7551,182.589 17.2551,189.255 16,201.5C 14.2017,206.482 11.035,210.149 6.5,212.5C 4.16667,212.5 1.83333,212.5 -0.5,212.5C -0.5,202.167 -0.5,191.833 -0.5,181.5 Z"/></g>
<g><path style="opacity:0.996" fill="#a1dadc" d="M 41.5,181.5 C 54.4952,179.985 61.8285,185.651 63.5,198.5C 52.1667,198.5 40.8333,198.5 29.5,198.5C 29.8297,190.154 33.8297,184.487 41.5,181.5 Z"/></g>
<g><path style="opacity:0.994" fill="#a1d8db" d="M 158.5,181.5 C 161.167,181.5 163.833,181.5 166.5,181.5C 172.167,181.5 177.833,181.5 183.5,181.5C 186.167,181.5 188.833,181.5 191.5,181.5C 191.5,183.833 191.5,186.167 191.5,188.5C 182.024,200.433 171.857,201.099 161,190.5C 159.451,187.688 158.618,184.688 158.5,181.5 Z"/></g>
</svg>
